# AST/ASF file generated using VICON BodyLanguage
# -----------------------------------------------
:version 1.10
:name VICON
:units
  mass 1.0
  length 0.45
  angle deg
:documentation
   .ast/.asf automatically generated from VICON data using
   VICON BodyBuilder and BodyLanguage model FoxedUp or BRILLIANT.MOD
:root
   order TX TY TZ RX RY RZ
   axis XYZ
   position 0 0 0  
   orientation 0 0 0 
:bonedata
  begin
     id 1 
     name lhipjoint
     direction 0.729592 -0.560644 0.39163 
     length 2.81907 
     axis 0 0 0  XYZ
  end
  begin
     id 2 
     name lfemur
     direction 0.34202 -0.939693 0  
     length 5.92797  
     axis 0 0 20  XYZ
    dof rx ry rz
    limits (-160.0 20.0)
           (-70.0 70.0)
           (-60.0 70.0)
  end
  begin
     id 3 
     name ltibia
     direction 0.34202 -0.939693 0   
     length 7.88118   
     axis 0 0 20   XYZ
    dof rx
    limits (-10.0 170.0)
  end
  begin
     id 4 
     name lfoot
     direction 0.0476411 -0.130893 0.990251   
     length 1.97348   
     axis -90 7.62852e-016 20   XYZ
    dof rx rz
    limits (-45.0 90.0)
           (-70.0 20.0)
  end
  begin
     id 5 
     name ltoes
     direction 1.53635e-011 -4.21786e-011 1   
     length 0.999366   
     axis -90 7.62852e-016 20   XYZ
    dof rx
    limits (-90.0 20.0)
  end
  begin
     id 6 
     name rhipjoint
     direction -0.702143 -0.583724 0.407752   
     length 2.70761  
     axis 0 0 0  XYZ 
  end
  begin
     id 7 
     name rfemur
     direction -0.34202 -0.939693 0   
     length 5.98021   
     axis 0 0 -20   XYZ
    dof rx ry rz
    limits (-160.0 20.0)
           (-70.0 70.0)
           (-70.0 60.0)
  end
  begin
     id 8 
     name rtibia
     direction -0.34202 -0.939693 0   
     length 7.66627   
     axis 0 0 -20   XYZ
    dof rx
    limits (-10.0 170.0)
 end
 begin
     id 9 
     name rfoot
     direction -0.0516088 -0.141794 0.98855   
     length 2.01387  
     axis -90 -7.62852e-016 -20   XYZ
    dof rx rz
    limits (-45.0 90.0)
           (-20.0 70.0)
  end
  begin
     id 10 
     name rtoes
     direction -1.53568e-011 -4.21939e-011 1   
     length 1.01862   
     axis -90 -7.62852e-016 -20   XYZ
    dof rx
    limits (-90.0 20.0)
  end
  begin
     id 11 
     name lowerback
     direction -0.0436953 0.98817 -0.147007   
     length 1.83615   
     axis 0 0 0   XYZ
    dof rx ry rz
    limits (-20.0 45.0)
           (-30.0 30.0)
           (-30.0 30.0)
  end
  begin
     id 12 
     name upperback
     direction 0.0239184 0.998197 0.0550483   
     length 1.80285   
     axis 0 0 0   XYZ
    dof rx ry rz
    limits (-20.0 45.0)
           (-30.0 30.0)
           (-30.0 30.0)
  end
  begin
     id 13 
     name thorax
     direction 0.0460768 0.990713 0.127927   
     length 1.87059   
     axis 0 0 0   XYZ
    dof rx ry rz
    limits (-20.0 45.0)
           (-30.0 30.0)
           (-30.0 30.0)
  end
  begin
     id 14 
     name lowerneck
     direction -0.0234223 0.997727 0.0631897   
     length 1.79511   
     axis 0 0 0   XYZ
    dof rx ry rz
    limits (-20.0 45.0)
           (-30.0 30.0)
           (-30.0 30.0)
  end
  begin
     id 15 
     name upperneck
     direction 0.0345303 0.984409 -0.172474   
     length 1.80359   
     axis 0 0 0   XYZ
    dof rx ry rz
    limits (-20.0 45.0)
           (-30.0 30.0)
           (-30.0 30.0)
  end
  begin
     id 16
     name head
     direction 0.00973222 0.9978 -0.0655778  
     length 1.81938  
     axis 0 0 0   XYZ
    dof rx ry rz
    limits (-20.0 45.0)
           (-30.0 30.0)
           (-30.0 30.0)
  end
  begin
     id 17 
     name lclavicle
     direction 0.971201 0.212597 -0.10757  
     length 3.74698  
     axis 0 0 0   XYZ
    dof ry rz
    limits (-20.0 10.0)
           (0.0 20.0)
  end
  begin
     id 18 
     name lhumerus
     direction 1 -4.4896e-011 1.42684e-027   
     length 4.83799   
     axis 180 -30 -90   XYZ
    dof rx ry rz
    limits (-60.0 90.0)
           (-90.0 90.0)
           (-90.0 90.0)
  end
  begin
     id 19
     name lradius
     direction 1 -4.48978e-011 1.53407e-026   
     length 2.68259   
     axis 180 -30 -90   XYZ
    dof rx
    limits (-10.0 170.0)
  end
  begin
     id 20
     name lwrist
     direction 1 -4.48982e-011 3.34345e-026   
     length 1.34129   
     axis -2.22354e-014 90 90   XYZ
    dof ry
    limits (-180.0 0.0)
 end
  begin
     id 21 
     name lhand
     direction 1 -4.48992e-011 6.6869e-026   
     length 0.724765   
     axis -4.26681e-014 90 90   XYZ
    dof rx rz
    limits (-90.0 90.0)
           (-45.0 45.0)
  end
  begin
     id 22 
     name lfingers
     direction 1 -4.48965e-011 1.33738e-025   
     length 0.584325   
     axis -8.53362e-014 90 90   XYZ
    dof rx
    limits (0.0 90.0)
  end
  begin
     id 23
     name lthumb
     direction 0.707107 -6.34915e-011 0.707107   
     length 0.838977   
     axis -90 45 2.85299e-015   XYZ
    dof rx rz
    limits (-45.0 45.0)
           (-45.0 45.0)
  end
  begin
     id 24 
     name rclavicle
     direction -0.987829 0.146084 -0.0534135   
     length 3.83678  
     axis 0 0 0   XYZ 
    dof ry rz
    limits (-10.0 20.0)
           (-20.0 0.0)
  end
  begin
     id 25 
     name rhumerus
     direction -1 -4.48963e-011 -3.4086e-018  
     length 4.61639   
     axis 180 30 90   XYZ
    dof rx ry rz
    limits (-90.0 60.0)
           (-90.0 90.0)
           (-90.0 90.0)
  end
  begin
     id 26 
     name rradius
     direction -1 -4.48983e-011 1.36226e-026   
     length 2.86915   
     axis 180 30 90   XYZ
    dof rx
    limits (-10.0 170.0)
  end
  begin
     id 27 
     name rwrist
     direction -1 -4.48927e-011 3.34345e-026   
     length 1.43458   
     axis -2.22354e-014 -90 -90   XYZ
    dof ry
    limits (-180.0 0.0)
  end
  begin
     id 28
     name rhand
     direction -1 -4.49071e-011 6.6869e-026   
     length 0.726007   
     axis -4.26681e-014 -90 -90   XYZ
    dof rx rz
    limits (-90.0 90.0)
           (-45.0 45.0)
  end
  begin
     id 29
     name rfingers
     direction -1 -4.48886e-011 1.33738e-025   
     length 0.585326   
     axis -8.53362e-014 -90 -90   XYZ
    dof rx
    limits (0.0 90.0)
  end
  begin
     id 30
     name rthumb
     direction -0.707107 -6.34932e-011 0.707107   
     length 0.840414   
     axis -90 -45 -2.85299e-015   XYZ
    dof rx rz
    limits (-45.0 45.0)
           (-45.0 45.0)
  end
:hierarchy
  begin
    root lhipjoint rhipjoint lowerback
    lhipjoint lfemur
    lfemur ltibia
    ltibia lfoot
    lfoot ltoes
    rhipjoint rfemur
    rfemur rtibia
    rtibia rfoot
    rfoot rtoes
    lowerback upperback
    upperback thorax
    thorax lowerneck lclavicle rclavicle
    lowerneck upperneck
    upperneck head
    lclavicle lhumerus
    lhumerus lradius
    lradius lwrist
    lwrist lhand lthumb
    lhand lfingers
    rclavicle rhumerus
    rhumerus rradius
    rradius rwrist
    rwrist rhand rthumb
    rhand rfingers
  end

#!OML:ASF F:\VICON\USERDATA\INSTALL\rory3\rory3.ASF
:FULLY-SPECIFIED
:DEGREES
384
root -0.700053 16.0216 19.7847 2.60458 -0.860498 6.54617
lowerback 11.981 -0.308844 -9.88516
upperback -4.85298 -2.03029 0.618905
thorax -11.7976 -0.172995 6.71743
lowerneck -10.0108 -4.51805 -4.12261
upperneck 18.4363 -6.19617 3.48155
head 7.5552 -2.94118 1.22606
rclavicle -1.45858e-014 -5.96354e-015
rhumerus -47.3179 -4.68471 -82.5023
rradius 21.312
rwrist 10.2207
rhand -7.32686 21.0129
rfingers 7.12502
rthumb 18.5564 -8.12199
lclavicle -1.45858e-014 -5.96354e-015
lhumerus -29.3743 -0.867824 86.1722
lradius 31.1922
lwrist 6.28784
lhand -7.34453 19.7203
lfingers 7.12502
lthumb 18.5394 48.8569
rfemur -35.0775 20.0088 6.40906
rtibia 23.9276
rfoot -11.2608 -18.4629
rtoes 25.6987
lfemur 16.2002 -12.6074 -35.3595
ltibia -2.8625e-014
lfoot -9.42498 8.86112
ltoes 21.4897
385
root -0.709123 16.0106 19.9195 2.76508 -0.598386 6.68326
lowerback 12.0045 -0.340937 -9.9541
upperback -4.9967 -2.09835 0.604924
thorax -11.9648 -0.185066 6.75955
lowerneck -9.85082 -4.57609 -4.13124
upperneck 18.596 -6.25661 3.32748
head 7.57688 -2.98589 1.1738
rclavicle 2.34317e-014 -3.18055e-015
rhumerus -47.415 -4.90009 -82.2634
rradius 21.0343
rwrist 10.6363
rhand -7.46319 21.5205
rfingers 7.12502
rthumb 18.4253 -7.62688
lclavicle 2.34317e-014 -3.18055e-015
lhumerus -29.4691 -1.08055 86.4316
lradius 31.2747
lwrist 6.54839
lhand -7.42709 19.7925
lfingers 7.12502
lthumb 18.46 48.9366
rfemur -35.4223 21.6207 5.13699
rtibia 22.8475
rfoot -12.0623 -19.4137
rtoes 25.5181
lfemur 16.5958 -12.4778 -35.4868
ltibia 1.59028e-014
lfoot -9.42221 8.61707
ltoes 18.7214
386
root -0.718355 16.0014 20.0579 2.94953 -0.254964 6.86507
lowerback 11.832 -0.431967 -10.0893
upperback -5.03876 -2.22535 0.613768
thorax -11.8821 -0.238145 6.86617
lowerneck -10.0714 -4.65977 -4.12272
upperneck 18.8806 -6.32314 3.06376
head 7.70396 -3.03648 1.07242
rclavicle -1.33931e-014 1.19271e-014
rhumerus -47.2949 -4.94362 -82.0963
rradius 20.7805
rwrist 11.0271
rhand -7.47279 21.7394
rfingers 7.12502
rthumb 18.4161 -7.40888
lclavicle -1.33931e-014 1.19271e-014
lhumerus -29.4504 -0.908329 86.5886
lradius 31.4113
lwrist 6.28976
lhand -7.34416 20.1812
lfingers 7.12502
lthumb 18.5398 49.3177
rfemur -35.7971 22.8208 3.99783
rtibia 22.1338
rfoot -12.8021 -20.2086
rtoes 25.0507
lfemur 16.982 -12.4384 -35.6389
ltibia -9.54166e-015
lfoot -9.53678 8.2867
ltoes 16.6951
387
root -0.728885 15.9909 20.2071 2.97264 0.103796 7.05252
lowerback 11.6345 -0.487333 -10.1468
upperback -4.93476 -2.2857 0.556563
thorax -11.6315 -0.285162 6.83551
lowerneck -10.2983 -4.77835 -4.19106
upperneck 18.9491 -6.46622 3.05566
head 7.77514 -3.10645 1.06018
rclavicle -8.29926e-015 7.95139e-015
rhumerus -47.1349 -5.10471 -82.0022
rradius 20.7156
rwrist 11.3033
rhand -7.5574 21.7192
rfingers 7.12502
rthumb 18.3347 -7.43668
lclavicle -8.29926e-015 7.95139e-015
lhumerus -29.2474 -0.877931 86.7174
lradius 31.4125
lwrist 6.00312
lhand -6.99661 19.7114
lfingers 7.12502
lthumb 18.8741 48.8157
rfemur -35.8726 23.8338 3.12066
rtibia 21.6345
rfoot -13.9487 -20.7418
rtoes 25.1004
lfemur 17.5624 -12.3825 -35.7735
ltibia -1.59028e-014
lfoot -9.93653 7.70393
ltoes 18.084
388
root -0.744587 15.9767 20.3566 2.95863 0.442215 7.19996
lowerback 11.5369 -0.502725 -10.2189
upperback -4.86524 -2.30916 0.491235
thorax -11.4891 -0.305688 6.80186
lowerneck -10.2847 -4.84794 -4.21612
upperneck 18.8818 -6.57362 3.14574
head 7.75873 -3.15122 1.08346
rclavicle 2.40778e-014 -1.07344e-014
rhumerus -47.1165 -5.44303 -81.8248
rradius 20.7064
rwrist 11.5255
rhand -7.55867 21.8404
rfingers 7.12502
rthumb 18.3334 -7.31566
lclavicle 2.40778e-014 -1.07344e-014
lhumerus -29.0156 -1.03669 86.8698
lradius 31.208
lwrist 5.95641
lhand -6.76648 19.1873
lfingers 7.12502
lthumb 19.0954 48.2699
rfemur -35.7777 24.5214 2.58929
rtibia 21.2636
rfoot -15.2802 -21.0133
rtoes 25.6591
lfemur 18.1535 -12.3019 -35.8434
ltibia 6.36111e-014
lfoot -10.219 7.11227
ltoes 19.3841
389
root -0.763598 15.9578 20.4979 3.00494 0.682601 7.11837
lowerback 11.5409 -0.527465 -10.1998
upperback -4.8852 -2.33337 0.562081
thorax -11.5072 -0.313293 6.87571
lowerneck -10.2831 -4.87031 -4.1921
upperneck 18.9692 -6.59727 3.07273
head 7.78492 -3.16697 1.05259
rclavicle 3.50109e-014 9.54166e-015
rhumerus -47.1018 -5.36041 -81.8321
rradius 20.7476
rwrist 11.3856
rhand -7.51754 21.5399
rfingers 7.12502
rthumb 18.373 -7.61245
lclavicle 3.50109e-014 9.54166e-015
lhumerus -28.9348 -0.678996 86.9268
lradius 31.1696
lwrist 5.81917
lhand -6.43352 19.7886
lfingers 7.12502
lthumb 19.4156 48.8392
rfemur -35.717 24.8691 2.56912
rtibia 21.0402
rfoot -16.2445 -21.1102
rtoes 26.5669
lfemur 18.6386 -12.1313 -35.6762
ltibia 1.59028e-014
lfoot -10.2444 6.84605
ltoes 18.2512
390
root -0.772988 15.9375 20.641 3.02656 0.923819 7.00508
lowerback 11.5725 -0.589406 -9.98227
upperback -4.96045 -2.38293 0.619034
thorax -11.6044 -0.3418 6.82913
lowerneck -10.0441 -4.87921 -4.25279
upperneck 18.9399 -6.60455 3.06074
head 7.7344 -3.17924 1.06399
rclavicle 2.96686e-014 3.18055e-015
rhumerus -47.1044 -5.04584 -81.9759
rradius 20.7007
rwrist 11.0837
rhand -7.48816 21.2106
rfingers 7.12502
rthumb 18.4013 -7.93901
lclavicle 2.96686e-014 3.18055e-015
lhumerus -29.1033 -0.189937 86.9556
lradius 31.1907
lwrist 5.45017
lhand -6.10829 19.7711
lfingers 7.12502
lthumb 19.7283 48.79
rfemur -35.4842 24.7579 2.84514
rtibia 20.9244
rfoot -16.554 -20.8203
rtoes 27.6894
lfemur 19.1519 -11.9464 -35.512
ltibia 8.5875e-014
lfoot -10.2979 6.57988
ltoes 16.2828
391
root -0.784902 15.9179 20.7884 3.00566 1.09775 6.99161
lowerback 11.5265 -0.59704 -9.81622
upperback -5.01556 -2.36577 0.599528
thorax -11.6469 -0.34285 6.70899
lowerneck -9.67996 -4.89068 -4.3897
upperneck 18.8112 -6.63231 3.19193
head 7.63734 -3.19565 1.13638
rclavicle 4.17448e-015 2.3059e-014
rhumerus -47.0961 -5.04566 -81.947
rradius 20.499
rwrist 11.2358
rhand -7.46671 21.3475
rfingers 7.12502
rthumb 18.4219 -7.80023
lclavicle 4.17448e-015 2.3059e-014
lhumerus -29.2096 -0.0013351 87.0182
lradius 30.9847
lwrist 5.45457
lhand -5.9308 19.3437
lfingers 7.12502
lthumb 19.8989 48.3449
rfemur -35.0787 24.3414 3.28086
rtibia 20.9341
rfoot -16.529 -20.2301
rtoes 28.8872
lfemur 19.7431 -11.6893 -35.4587
ltibia -1.27222e-014
lfoot -10.1986 6.32045
ltoes 13.9069
392
root -0.80491 15.8947 20.9353 3.03965 1.25211 6.98962
lowerback 11.5087 -0.592585 -9.79171
upperback -5.11459 -2.35978 0.598765
thorax -11.7521 -0.331933 6.69491
lowerneck -9.58631 -4.89801 -4.36785
upperneck 18.9244 -6.64859 3.16233
head 7.65666 -3.20531 1.12302
rclavicle -6.08778e-015 7.95139e-016
rhumerus -47.2431 -4.92467 -81.9838
rradius 20.5003
rwrist 11.2333
rhand -7.53888 21.5809
rfingers 7.12502
rthumb 18.3525 -7.57337
lclavicle -6.08778e-015 7.95139e-016
lhumerus -29.3755 0.257422 87.0425
lradius 30.8068
lwrist 5.41632
lhand -5.96603 19.7361
lfingers 7.12502
lthumb 19.865 48.7408
rfemur -34.7206 23.583 3.92766
rtibia 21.194
rfoot -16.2011 -19.4373
rtoes 30.6096
lfemur 20.2847 -11.4409 -35.3546
ltibia -1.59028e-014
lfoot -10.1201 5.96459
ltoes 12.8191
